<svg xmlns="http://www.w3.org/2000/svg">
  <symbol id="ic_pg-logo" viewBox="0 0 16 16" width="100%">
    <title>PlanGrid Logo</title>
    <path d="M11.067 0H4.933c-1.738 0-2.84.007-3.882 1.048C.007 2.093 0 3.2 0 4.933v6.134c0 1.738.007 2.84 1.048 3.882C2.093 15.994 3.2 16 4.933 16h6.134c1.738 0 2.84-.006 3.882-1.048C15.993 13.908 16 12.8 16 11.067V4.933c0-1.738-.007-2.84-1.048-3.882C13.907.006 12.8 0 11.067 0" fill="#0085de"/><path d="M12.477 13.16a.683.683 0 1 1 0-1.366.683.683 0 0 1 0 1.366zM8 12.634A4.639 4.639 0 0 1 3.366 8 4.639 4.639 0 0 1 8 3.366 4.639 4.639 0 0 1 12.634 8 4.64 4.64 0 0 1 8 12.634zm6-5.2C13.715 4.386 11.123 2 8 2a6 6 0 0 0-6 6c0 3.2 2.501 5.824 5.657 6h4.758A1.59 1.59 0 0 0 14 12.415V7.434z" fill="#FFF" />
  </symbol>
</svg>
