<?xml version="1.0" encoding="UTF-8" standalone="no"?>
<svg width="16px" height="16px" viewBox="0 0 16 16" version="1.1" xmlns="http://www.w3.org/2000/svg" xmlns:xlink="http://www.w3.org/1999/xlink">
    <!-- Generator: Sketch 3.7.1 (28215) - http://www.bohemiancoding.com/sketch -->
    <title>pg-logo</title>
    <desc>Created with Sketch.</desc>
    <defs></defs>
    <g id="Page-1" stroke="none" stroke-width="1" fill="none" fill-rule="evenodd">
        <g id="pg-logo">
            <path d="M11.0666072,0 L4.93327585,0 C3.1948088,0 2.09261438,0.0067812959 1.05086703,1.04841173 C0.00654745811,2.0927313 0,3.20018707 0,4.93339277 L0,11.0667242 C0,12.8053081 0.0067812959,13.9075025 1.04841173,14.949133 C2.09319897,15.9939202 3.20030399,16 4.93327585,16 L11.0666072,16 C12.8051912,16 13.9071518,15.9935695 14.949133,14.9515883 C15.9932187,13.9075025 16,12.7998129 16,11.0667242 L16,4.93339277 C16,3.1948088 15.9933356,2.09261438 14.9515883,1.05086703 C13.906801,0.00607978253 12.799696,0 11.0666072,0" id="bg" fill="#0085DE"></path>
            <path d="M12.47684,13.16012 C12.09944,13.16012 11.79368,12.85436 11.79368,12.47708 C11.79368,12.09956 12.09944,11.79368 12.47684,11.79368 C12.8546,11.79368 13.16,12.09956 13.16,12.47708 C13.16,12.85436 12.8546,13.16012 12.47684,13.16012 L12.47684,13.16012 Z M7.99988,12.63368 C5.44496,12.63368 3.36632,10.5548 3.36632,8 C3.36632,5.44484 5.44496,3.36632 7.99988,3.36632 C10.55492,3.36632 12.63368,5.44484 12.63368,8 C12.63368,10.5548 10.55492,12.63368 7.99988,12.63368 L7.99988,12.63368 Z M14,7.43396 C13.715,4.38572 11.12264,2 8,2 C4.68668,2 2,4.6862 2,8 C2,11.20004 4.5014,13.82372 7.65716,14 L12.41492,14 C13.28696,14 14,13.28696 14,12.41492 L14,7.43396 L14,7.43396 Z" id="loupe" fill="#FFFFFF"></path>
        </g>
    </g>
</svg>